<svg width="870" height="196" viewBox="0 0 870 196" fill="none" xmlns="http://www.w3.org/2000/svg">
<path d="M254.573 69.9816L224.776 173.411H205.119L177.046 108.313H176.257L157.503 173.411H134.746L164.543 69.9816H184.515L212.235 135.029H213.181L231.921 69.9816H254.573Z" fill="url(#paint0_linear_132_1243)"/>
<path d="M273.275 174.926C265.112 174.926 258.532 173.26 253.535 169.927C248.584 166.56 245.36 161.88 243.863 155.887C242.376 149.86 242.777 142.874 245.066 134.928C247.374 126.915 251.003 119.912 255.953 113.919C260.913 107.892 266.834 103.212 273.716 99.8792C280.642 96.5124 288.187 94.8289 296.351 94.8289C304.515 94.8289 311.072 96.5124 316.024 99.8792C321.02 103.212 324.262 107.892 325.749 113.919C327.246 119.912 326.84 126.915 324.532 134.928C322.242 142.874 318.618 149.86 313.658 155.887C308.708 161.88 302.77 166.56 295.844 169.927C288.962 173.26 281.439 174.926 273.275 174.926ZM278.182 158.26C281.896 158.26 285.288 157.25 288.357 155.23C291.437 153.176 294.116 150.382 296.396 146.847C298.711 143.312 300.518 139.288 301.818 134.777C303.118 130.265 303.629 126.242 303.351 122.706C303.108 119.171 302.038 116.377 300.142 114.323C298.246 112.269 295.441 111.242 291.727 111.242C287.978 111.242 284.529 112.269 281.38 114.323C278.265 116.377 275.551 119.171 273.236 122.706C270.956 126.242 269.166 130.265 267.866 134.777C266.567 139.288 266.038 143.312 266.281 146.847C266.559 150.382 267.664 153.176 269.595 155.23C271.57 157.25 274.433 158.26 278.182 158.26Z" fill="url(#paint1_linear_132_1243)"/>
<path d="M417.091 95.839L366.52 173.411H341.293L335.418 95.839H359.068L359.844 151.342H360.685L393.388 95.839H417.091Z" fill="url(#paint2_linear_132_1243)"/>
<path d="M420.71 174.876C415.56 174.876 411.217 174.017 407.682 172.3C404.157 170.549 401.711 167.974 400.343 164.573C399.02 161.139 399.096 156.863 400.57 151.746C401.811 147.436 403.678 143.817 406.168 140.887C408.659 137.958 411.58 135.602 414.932 133.817C418.285 132.033 421.896 130.686 425.767 129.777C429.673 128.868 433.676 128.228 437.777 127.858C442.608 127.386 446.518 126.949 449.508 126.545C452.507 126.107 454.776 125.467 456.315 124.626C457.854 123.784 458.861 122.538 459.336 120.888L459.423 120.585C460.345 117.387 460.007 114.912 458.409 113.161C456.846 111.411 454.155 110.535 450.336 110.535C446.306 110.535 442.853 111.394 439.976 113.111C437.108 114.794 434.921 116.915 433.413 119.474L413.171 117.858C415.58 113.145 418.821 109.071 422.893 105.637C426.976 102.169 431.719 99.5089 437.123 97.6571C442.571 95.7717 448.519 94.8289 454.966 94.8289C459.451 94.8289 463.597 95.334 467.406 96.344C471.249 97.3541 474.46 98.9197 477.037 101.041C479.649 103.162 481.404 105.889 482.301 109.222C483.207 112.522 482.996 116.478 481.667 121.09L466.594 173.411H445.361L448.46 162.654H447.829C445.834 165.078 443.484 167.216 440.778 169.068C438.082 170.886 435.06 172.317 431.711 173.361C428.371 174.371 424.705 174.876 420.71 174.876ZM431.4 160.028C434.693 160.028 437.781 159.405 440.662 158.159C443.554 156.88 446.028 155.163 448.085 153.008C450.143 150.853 451.564 148.412 452.35 145.685L454.722 137.453C453.895 137.891 452.815 138.295 451.482 138.665C450.193 139.002 448.752 139.322 447.158 139.625C445.574 139.894 443.995 140.147 442.42 140.382C440.855 140.584 439.436 140.77 438.161 140.938C435.426 141.308 432.962 141.898 430.767 142.706C428.572 143.514 426.732 144.608 425.248 145.988C423.774 147.335 422.746 149.018 422.164 151.039C421.32 153.968 421.779 156.207 423.54 157.755C425.346 159.27 427.966 160.028 431.4 160.028Z" fill="url(#paint3_linear_132_1243)"/>
<path d="M484.746 173.411L514.544 69.9816H537.301L512.697 155.382H558.842L553.648 173.411H484.746Z" fill="url(#paint4_linear_132_1243)"/>
<path d="M598.732 174.926C590.428 174.926 583.745 173.31 578.685 170.078C573.67 166.812 570.408 162.2 568.902 156.24C567.405 150.247 567.835 143.16 570.192 134.979C572.491 126.999 576.12 119.996 581.08 113.969C586.04 107.943 591.93 103.246 598.751 99.8792C605.608 96.5124 612.995 94.8289 620.914 94.8289C626.239 94.8289 630.96 95.6538 635.074 97.3036C639.234 98.9197 642.56 101.361 645.053 104.626C647.581 107.892 649.095 112 649.596 116.949C650.107 121.865 649.412 127.622 647.511 134.221L645.809 140.13H577.643L581.484 126.797H628.575C629.467 123.7 629.557 120.956 628.844 118.565C628.131 116.175 626.725 114.306 624.625 112.959C622.57 111.579 619.913 110.889 616.655 110.889C613.256 110.889 610.025 111.646 606.96 113.161C603.941 114.643 601.331 116.646 599.132 119.171C596.943 121.663 595.389 124.44 594.472 127.504L590.82 140.18C589.714 144.019 589.494 147.335 590.161 150.129C590.863 152.924 592.361 155.079 594.658 156.594C596.954 158.109 599.977 158.866 603.726 158.866C606.214 158.866 608.588 158.53 610.85 157.856C613.111 157.183 615.171 156.173 617.031 154.826C618.89 153.479 620.487 151.83 621.82 149.877L642.149 151.19C639.721 155.971 636.363 160.146 632.077 163.715C627.835 167.25 622.87 170.011 617.182 171.997C611.539 173.95 605.389 174.926 598.732 174.926Z" fill="url(#paint5_linear_132_1243)"/>
<path d="M667.509 174.876C662.359 174.876 658.016 174.017 654.482 172.3C650.957 170.549 648.51 167.974 647.142 164.573C645.819 161.139 645.895 156.863 647.369 151.746C648.611 147.436 650.477 143.817 652.967 140.887C655.458 137.958 658.379 135.602 661.732 133.817C665.084 132.033 668.695 130.686 672.566 129.777C676.472 128.868 680.475 128.228 684.576 127.858C689.407 127.386 693.317 126.949 696.307 126.545C699.306 126.107 701.575 125.467 703.114 124.626C704.653 123.784 705.66 122.538 706.135 120.888L706.223 120.585C707.144 117.387 706.806 114.912 705.208 113.161C703.645 111.411 700.954 110.535 697.135 110.535C693.106 110.535 689.652 111.394 686.775 113.111C683.908 114.794 681.72 116.915 680.212 119.474L659.97 117.858C662.379 113.145 665.62 109.071 669.693 105.637C673.775 102.169 678.518 99.5089 683.922 97.6571C689.37 95.7717 695.318 94.8289 701.765 94.8289C706.25 94.8289 710.397 95.334 714.205 96.344C718.048 97.3541 721.259 98.9197 723.836 101.041C726.449 103.162 728.203 105.889 729.1 109.222C730.006 112.522 729.795 116.478 728.466 121.09L713.393 173.411H692.16L695.259 162.654H694.628C692.634 165.078 690.283 167.216 687.578 169.068C684.881 170.886 681.859 172.317 678.51 173.361C675.171 174.371 671.504 174.876 667.509 174.876ZM678.199 160.028C681.492 160.028 684.58 159.405 687.462 158.159C690.353 156.88 692.827 155.163 694.885 153.008C696.942 150.853 698.363 148.412 699.149 145.685L701.521 137.453C700.694 137.891 699.614 138.295 698.281 138.665C696.993 139.002 695.552 139.322 693.958 139.625C692.373 139.894 690.794 140.147 689.219 140.382C687.655 140.584 686.235 140.77 684.96 140.938C682.225 141.308 679.761 141.898 677.566 142.706C675.371 143.514 673.532 144.608 672.048 145.988C670.574 147.335 669.545 149.018 668.963 151.039C668.12 153.968 668.578 156.207 670.339 157.755C672.145 159.27 674.765 160.028 678.199 160.028Z" fill="url(#paint6_linear_132_1243)"/>
<path d="M724.843 173.411L747.191 95.839H768.897L764.998 109.374H765.839C768.697 104.559 772.215 100.923 776.392 98.4651C780.578 95.9737 784.932 94.7279 789.452 94.7279C790.573 94.7279 791.762 94.7953 793.02 94.9299C794.277 95.0646 795.363 95.2498 796.276 95.4855L790.776 114.576C789.812 114.272 788.436 114.003 786.647 113.767C784.858 113.532 783.192 113.414 781.651 113.414C778.357 113.414 775.215 114.104 772.225 115.485C769.279 116.831 766.703 118.717 764.498 121.141C762.328 123.565 760.788 126.359 759.876 129.524L747.232 173.411H724.843Z" fill="url(#paint7_linear_132_1243)"/>
<path d="M814.791 128.565L801.871 173.411H779.482L801.83 95.839H823.168L819.225 109.525H820.171C823.258 105.014 827.281 101.445 832.243 98.8186C837.213 96.1588 842.695 94.8289 848.686 94.8289C854.292 94.8289 858.84 96.0073 862.331 98.3641C865.821 100.721 868.093 104.088 869.144 108.465C870.205 112.808 869.868 117.993 868.132 124.02L853.902 173.411H831.513L844.637 127.858C846.039 123.11 845.845 119.407 844.053 116.747C842.272 114.054 839.138 112.707 834.653 112.707C831.64 112.707 828.798 113.33 826.126 114.576C823.49 115.821 821.179 117.639 819.194 120.03C817.254 122.387 815.786 125.232 814.791 128.565Z" fill="url(#paint8_linear_132_1243)"/>
<path d="M42.61 64.8215L75.0282 53.0223L32.4182 184.162L0 195.962L42.61 64.8215Z" fill="url(#paint9_linear_132_1243)"/>
<path d="M126.387 11.7993L158.805 0L106.668 160.462L74.2495 172.262L126.387 11.7993Z" fill="url(#paint10_linear_132_1243)"/>
<path d="M81.1807 53.0224L100.623 71.7978L68.0961 171.906L48.6535 153.131L81.1807 53.0224Z" fill="url(#paint11_linear_132_1243)"/>
<defs>
<linearGradient id="paint0_linear_132_1243" x1="452.353" y1="150.033" x2="430.867" y2="8.84187" gradientUnits="userSpaceOnUse">
<stop stop-color="#5535D8"/>
<stop offset="1" stop-color="#DA51CD"/>
</linearGradient>
<linearGradient id="paint1_linear_132_1243" x1="452.353" y1="150.033" x2="430.867" y2="8.84187" gradientUnits="userSpaceOnUse">
<stop stop-color="#5535D8"/>
<stop offset="1" stop-color="#DA51CD"/>
</linearGradient>
<linearGradient id="paint2_linear_132_1243" x1="452.353" y1="150.033" x2="430.867" y2="8.84187" gradientUnits="userSpaceOnUse">
<stop stop-color="#5535D8"/>
<stop offset="1" stop-color="#DA51CD"/>
</linearGradient>
<linearGradient id="paint3_linear_132_1243" x1="452.353" y1="150.033" x2="430.867" y2="8.84187" gradientUnits="userSpaceOnUse">
<stop stop-color="#5535D8"/>
<stop offset="1" stop-color="#DA51CD"/>
</linearGradient>
<linearGradient id="paint4_linear_132_1243" x1="472.64" y1="239.98" x2="861.72" y2="64.5044" gradientUnits="userSpaceOnUse">
<stop stop-color="#5535D8"/>
<stop offset="1" stop-color="#57C5F6"/>
</linearGradient>
<linearGradient id="paint5_linear_132_1243" x1="472.64" y1="239.98" x2="861.72" y2="64.5044" gradientUnits="userSpaceOnUse">
<stop stop-color="#5535D8"/>
<stop offset="1" stop-color="#57C5F6"/>
</linearGradient>
<linearGradient id="paint6_linear_132_1243" x1="472.64" y1="239.98" x2="861.72" y2="64.5044" gradientUnits="userSpaceOnUse">
<stop stop-color="#5535D8"/>
<stop offset="1" stop-color="#57C5F6"/>
</linearGradient>
<linearGradient id="paint7_linear_132_1243" x1="472.64" y1="239.98" x2="861.72" y2="64.5044" gradientUnits="userSpaceOnUse">
<stop stop-color="#5535D8"/>
<stop offset="1" stop-color="#57C5F6"/>
</linearGradient>
<linearGradient id="paint8_linear_132_1243" x1="472.64" y1="239.98" x2="861.72" y2="64.5044" gradientUnits="userSpaceOnUse">
<stop stop-color="#5535D8"/>
<stop offset="1" stop-color="#57C5F6"/>
</linearGradient>
<linearGradient id="paint9_linear_132_1243" x1="434.874" y1="0" x2="434.874" y2="195.962" gradientUnits="userSpaceOnUse">
<stop stop-color="#5434D7"/>
<stop offset="1" stop-color="#56C6F5"/>
</linearGradient>
<linearGradient id="paint10_linear_132_1243" x1="434.874" y1="0" x2="434.874" y2="195.962" gradientUnits="userSpaceOnUse">
<stop stop-color="#DA51CC"/>
<stop offset="1" stop-color="#9E51DA"/>
</linearGradient>
<linearGradient id="paint11_linear_132_1243" x1="90.9019" y1="62.4101" x2="25.1822" y2="130.465" gradientUnits="userSpaceOnUse">
<stop stop-color="#5434D7"/>
<stop offset="1" stop-color="#9E51DA"/>
</linearGradient>
</defs>
</svg>
